<svg id="Capa_1" enable-background="new 0 0 512.016 512.016" height="512" viewBox="0 0 512.016 512.016" width="512" xmlns="http://www.w3.org/2000/svg"><g><g><path d="m207.029 296.808h-42.563c-3.6 0-6.518 2.918-6.518 6.518v57.124h49.081l7.973-13.084v-41.75z" fill="#00abf2"/><path d="m233.381 154.547c1.465-6.555-3.955-12.604-10.631-11.865l-37.36 4.137c-7.914.876-11.527 10.332-6.214 16.263l29.162 32.547c5.314 5.931 15.108 3.374 16.845-4.398z" fill="#6b7ed9"/><path d="m256.11 247.017h-42.563c-3.6 0-6.518 2.918-6.518 6.518v106.915h49.081l7.392-11.834v-89.75z" fill="#00c2fb"/><path d="m305.191 197.226h-42.563c-3.6 0-6.518 2.918-6.518 6.518v156.706h49.081l8.311-4.584v-148.5z" fill="#00d2fc"/><path d="m347.754 147.435h-36.045c-3.6 0-6.518 2.918-6.518 6.518v206.497h49.081v-206.497c0-3.6-2.918-6.518-6.518-6.518z" fill="#62ddfc"/><path d="m478.17 295.711-8.168-15.166.875-32.125 9.314-8.774c-2.788.208-5.227-1.906-5.406-4.696-4.211-65.562-35.557-123.748-83.043-163.348-7.334-6.116-18.292-4.802-23.844 2.968l-.287.401c-5.011 7.014-3.656 16.65 2.975 22.156 41.769 34.683 67.665 85.052 71.059 140.371.17 2.765-1.907 5.161-4.67 5.367l-15.561 1.159c-9.319.693-13.907 11.675-7.851 18.792l39.009 45.842c5.014 5.893 14.312 5.2 18.398-1.37z" fill="#fbc700"/><path d="m478.17 295.711 24.59-39.538c4.935-7.935-1.228-18.116-10.547-17.422l-12.022.895c0-.001-55.082 13.969-2.021 56.065z" fill="#ffe02f"/><path d="m141.43 414.892c-41.768-34.682-67.664-85.052-71.059-140.37-.17-2.765 1.907-5.161 4.67-5.367l-4.79-10.11-12-8 8.458-25.75v-13.395l-7.266-8.539c-5.014-5.893-14.312-5.2-18.398 1.37l-31.79 51.115c-4.935 7.936 1.228 18.116 10.547 17.422l12.022-.895c2.788-.208 5.227 1.906 5.406 4.696 4.21 65.556 35.553 123.746 83.043 163.348 7.333 6.116 18.292 4.802 23.844-2.967l.287-.402c5.013-7.013 3.658-16.649-2.974-22.156z" fill="#fbc700"/><path d="m75.042 269.155 15.561-1.159c9.319-.693 13.906-11.675 7.85-18.792l-31.742-37.304c-7.337 9.217-38.939 52.37 8.331 57.255z" fill="#ffe02f"/><path d="m299.476 36.189 7.811 4.858c6.57 4.086 7.262 13.384 1.37 18.398l-45.843 39.009c-7.117 6.056-18.099 1.469-18.792-7.85l-1.159-15.561c-.206-2.763-2.601-4.84-5.367-4.671-55.319 3.395-105.688 29.29-140.37 71.059-5.506 6.632-15.142 7.987-22.155 2.976l-.402-.287c-7.77-5.552-9.083-16.51-2.967-23.844 39.603-47.49 97.792-78.832 163.348-83.043 2.79-.179 4.903-2.618 4.696-5.406l16.858 4.968z" fill="#fbc700"/><path d="m299.476 36.189-43.304-26.932c-7.936-4.935-18.116 1.228-17.422 10.547l.895 12.022s10.228 50.46 59.831 4.363z" fill="#ffe02f"/><path d="m437.449 367.898-.401-.287c-7.014-5.011-16.65-3.656-22.156 2.975-34.683 41.769-85.052 67.664-140.371 71.059-2.765.17-5.161-1.907-5.367-4.67l-16.652.652-6 14.772-21.167-9.439-12.524 1.569-9.452 8.043c-5.893 5.014-5.2 14.312 1.37 18.398l51.115 31.789c7.935 4.935 18.116-1.228 17.422-10.547l-.895-12.022c-.208-2.788 1.906-5.227 4.696-5.406 65.562-4.211 123.748-35.556 163.348-83.043 6.117-7.332 4.803-18.291-2.966-23.843z" fill="#fbc700"/><path d="m269.154 436.976-1.159-15.561c-.694-9.319-11.675-13.907-18.792-7.851l-36.391 30.966c10.221 9.487 44.871 37.442 56.342-7.554z" fill="#ffe02f"/></g><g><path d="m267.674 104.166 45.843-39.009c9.772-8.316 8.626-23.703-2.269-30.479l-51.115-31.79c-13.133-8.169-30.011 2.045-28.863 17.474l.712 9.559c-32.286 2.402-63.188 11.125-91.88 25.939-28.607 14.771-53.593 34.827-74.261 59.612-8.911 10.685-6.931 26.678 4.37 34.752 11.083 7.918 25.034 5.212 32.685-4.002 32.896-39.618 81.134-64.385 132.668-68.202l.979 13.14c1.146 15.42 19.348 23.034 31.131 13.006zm-30.637-41.279c-28.452 1.746-55.659 9.127-80.863 21.939-25.023 12.719-46.832 30.152-64.819 51.814-2.828 3.406-7.806 4.673-12.427 1.377-4.198-3-4.917-8.922-1.567-12.938 39.314-47.144 96.929-76.435 158.069-80.362 6.956-.447 12.214-6.489 11.694-13.448l-.896-12.021c-.236-3.169 3.217-5.34 5.982-3.622l51.115 31.79c2.259 1.405 2.498 4.591.47 6.318l-45.843 39.009c-2.447 2.083-6.214.509-6.452-2.696l-1.159-15.561c-.508-6.816-6.485-12.024-13.304-11.599z"/><path d="m441.408 361.509c-10.111-7.224-24.293-5.342-32.287 4.287-32.896 39.618-81.136 64.386-132.668 68.203l-.979-13.14c-1.147-15.426-19.35-23.032-31.132-13.006l-45.842 39.009c-9.774 8.316-8.625 23.703 2.27 30.479l51.114 31.79c13.13 8.166 30.009-2.051 28.862-17.472l-.712-9.56c65.344-4.861 124.834-36.017 166.142-85.552 8.516-10.213 7.577-26.189-4.768-35.038zm-6.752 25.43c-39.313 47.144-96.928 76.435-158.068 80.362-6.954.447-12.213 6.484-11.695 13.447l.895 12.022c.238 3.205-3.25 5.318-5.981 3.622l-51.114-31.79c-2.255-1.402-2.504-4.587-.471-6.317l45.843-39.009c2.444-2.079 6.214-.51 6.452 2.696l1.159 15.561c.508 6.814 6.48 12.015 13.305 11.599 57.183-3.509 109.484-30.16 145.683-73.754 3.045-3.669 8.214-4.386 12.021-1.667 5.013 3.589 5.098 9.48 1.971 13.228z"/><path d="m146.222 409.122c-39.617-32.896-64.386-81.137-68.203-132.668l13.141-.979c15.425-1.148 23.032-19.35 13.006-31.132l-39.009-45.842c-8.315-9.774-23.703-8.627-30.479 2.269l-31.79 51.115c-8.169 13.137 2.044 30.003 17.473 28.863l9.559-.712c4.876 65.507 36.147 124.942 85.552 166.142 10.213 8.515 26.216 7.578 35.038-4.77 7.222-10.11 5.339-24.291-4.288-32.286zm-7.918 23.566c-3.566 4.985-9.453 5.115-13.226 1.969-47.144-39.314-76.435-96.928-80.362-158.068-.444-6.951-6.478-12.21-13.447-11.696l-12.022.895c-3.177.243-5.329-3.234-3.62-5.982l31.789-51.115c1.404-2.259 4.59-2.499 6.317-.47l39.009 45.843c2.083 2.448.51 6.214-2.696 6.452l-15.561 1.16c-6.812.508-12.017 6.476-11.6 13.305 3.511 57.18 30.16 109.483 73.754 145.68 3.67 3.048 4.386 8.219 1.665 12.027z"/><path d="m361.532 367.95c4.143 0 7.5-3.358 7.5-7.5 0-4.061-3.23-7.36-7.261-7.488v-79.453c0-4.142-3.357-7.5-7.5-7.5s-7.5 3.358-7.5 7.5v79.441h-34.081c0-6.709 0-191.152 0-198.015h34.081v83.574c0 4.142 3.357 7.5 7.5 7.5s7.5-3.358 7.5-7.5v-84.556c0-7.729-6.288-14.018-14.018-14.018h-36.045c-7.729 0-14.019 6.289-14.019 14.018v35.773h-35.062c-7.73 0-14.019 6.289-14.019 14.018v35.773h-35.062c-7.729 0-14.019 6.289-14.019 14.018v35.773h-35.062c-7.729 0-14.018 6.289-14.018 14.018v49.625c-4.126.02-7.464 3.368-7.464 7.498 0 4.142 3.357 7.5 7.5 7.5 426.834.001 6.908.001 211.049.001zm-97.922-163.224h34.081v148.224h-34.081c0-13.813 0-144.835 0-148.224zm-49.081 49.791h34.081v98.433h-34.081c0-11.146 0-88.856 0-98.433zm-15 98.433h-34.08v-48.642h34.08z"/><path d="m144.208 223.749c2.765 3.086 7.507 3.344 10.591.581l38.376-34.385 9.576 10.688c9.376 10.463 26.685 5.946 29.75-7.767l8.198-36.684c2.584-11.563-6.997-22.254-18.775-20.956l-37.36 4.137c-13.961 1.546-20.353 18.255-10.975 28.722l9.576 10.688-38.376 34.384c-3.085 2.766-3.344 7.507-.581 10.592zm42.006-69.476c.207-.023 37.427-4.152 37.636-4.152 1.383 0 2.543 1.304 2.211 2.791l-8.198 36.684c-.407 1.825-2.691 2.423-3.939 1.028l-29.162-32.547c-1.249-1.393-.409-3.598 1.452-3.804z"/><path d="m491.656 231.271-9.559.711c-2.208-29.634-9.787-58.218-22.543-85.002-1.781-3.74-6.255-5.327-9.996-3.546-3.74 1.781-5.328 6.257-3.547 9.997 12.289 25.801 19.451 53.39 21.289 81.998.215 3.36 1.734 6.43 4.279 8.645 2.547 2.218 5.797 3.301 9.168 3.051l12.021-.895c3.167-.241 5.335 3.227 3.621 5.981l-31.789 51.115c-1.404 2.259-4.59 2.499-6.317.47l-39.009-45.842c-2.082-2.448-.51-6.214 2.695-6.453l15.562-1.159c6.815-.508 12.019-6.478 11.6-13.306-1.746-28.452-9.128-55.658-21.939-80.863-12.72-25.023-30.153-46.832-51.815-64.819-3.67-3.047-4.385-8.217-1.669-12.019 3.598-5.024 9.488-5.097 13.229-1.976 16.171 13.484 30.376 29.178 42.219 46.646 2.325 3.428 6.987 4.322 10.417 1.999 3.429-2.325 4.323-6.988 1.999-10.417-12.631-18.628-27.78-35.365-45.027-49.748-10.227-8.532-26.222-7.555-35.037 4.769-7.224 10.11-5.34 24.292 4.287 32.286 39.618 32.897 64.387 81.135 68.203 132.668l-13.141.979c-15.423 1.148-23.032 19.35-13.006 31.132l39.009 45.843c8.323 9.779 23.715 8.606 30.479-2.27l31.788-51.114c8.169-13.127-2.037-30.008-17.471-28.861z"/></g></g></svg>