<svg id="Capa_1" enable-background="new 0 0 512 512" height="512" viewBox="0 0 512 512" width="512" xmlns="http://www.w3.org/2000/svg"><g><g><g><g><g><g><g><g><path d="m494.5 416.686h-477c-5.523 0-10-4.477-10-10v-315.999c0-5.523 4.477-10 10-10h477c5.523 0 10 4.477 10 10v315.998c0 5.523-4.477 10.001-10 10.001z" fill="#a3e440"/><path d="m504.5 90.686v316c0 5.52-4.48 10-10 10h-40.03c5.53 0 10-4.48 10-10v-316c0-5.52-4.47-10-10-10h40.03c5.52 0 10 4.48 10 10z" fill="#8dc637"/><g><path d="m246 379.232h-195.54c-5.523 0-10-4.477-10-10v-303.057c0-5.523 4.477-10 10-10h165.54c22.091 0 40 17.909 40 40v273.057c0 5.523-4.477 10-10 10z" fill="#d9e7eb"/><path d="m256 96.176v273.06c0 5.52-4.48 10-10 10h-40.03c5.53 0 10-4.48 10-10v-273.06c0-22.09-17.9-40-40-40h40.03c22.09 0 40 17.91 40 40z" fill="#c5d3dd"/><path d="m461.54 379.232h-195.54c-5.523 0-10-4.477-10-10v-273.057c0-22.091 17.909-40 40-40h165.54c5.523 0 10 4.477 10 10v303.057c0 5.523-4.477 10-10 10z" fill="#d9e7eb"/><path d="m471.54 66.176v303.06c0 5.52-4.48 10-10 10h-40.02c5.52 0 10-4.48 10-10v-303.06c0-5.52-4.48-10-10-10h40.02c5.52 0 10 4.48 10 10z" fill="#c5d3dd"/></g><g><path d="m246 379.232h-195.54c-5.523 0-10-4.477-10-10v-44.888h175.54c22.091 0 40 17.909 40 40v4.888c0 5.523-4.477 10-10 10z" fill="#c5d3dd"/><path d="m256 364.346v4.89c0 5.52-4.48 10-10 10h-40.03c5.53 0 10-4.48 10-10v-4.89c0-22.09-17.9-40-40-40h40.03c22.09 0 40 17.91 40 40z" fill="#a0acb9"/></g><g><path d="m266 379.232h195.54c5.523 0 10-4.477 10-10v-44.888h-175.54c-22.091 0-40 17.909-40 40v4.888c0 5.523 4.477 10 10 10z" fill="#c5d3dd"/><path d="m471.54 324.346v44.89c0 5.52-4.48 10-10 10h-40.02c5.52 0 10-4.48 10-10v-44.89z" fill="#a0acb9"/></g></g></g></g></g><g><g><g><g><path d="m165.623 191.479h-68.404c-5.523 0-10.001-4.478-10.001-10.001v-70.88c0-5.523 4.478-10.001 10.001-10.001h68.404c5.523 0 10.001 4.478 10.001 10.001v70.88c0 5.523-4.478 10.001-10.001 10.001z" fill="#f17d7e"/><path d="m175.628 110.598v70.882c0 5.52-4.48 10.001-10.001 10.001h-27.222c5.53 0 10.001-4.48 10.001-10.001v-70.882c0-5.52-4.47-10.001-10.001-10.001h27.222c5.521 0 10.001 4.48 10.001 10.001z" fill="#fb4a59"/></g></g></g></g></g><g><path d="m409.046 284.611-31.12-8.822v-70.589c0-11.099-8.63-20.551-19.722-20.946-11.645-.414-21.215 8.903-21.215 20.455v70.104h-8.94c-13.477 0-24.403 10.926-24.403 24.403v57.24c0 8.498 3.604 16.597 9.916 22.286l12.567 11.325c6.312 5.689 9.916 13.788 9.916 22.286v43.472h87.652v-42.436c0-4.554 1.386-9 3.975-12.746l13.245-19.171c2.588-3.747 3.975-8.192 3.975-12.746v-36.693c0-22.045-14.637-41.41-35.846-47.422z" fill="#ffdfd0"/><path d="m409.05 284.611-25.64-7.27c13.16 9 21.46 24.08 21.46 40.68v50.7c0 4.56-1.39 9-3.98 12.75l-13.24 19.17c-2.59 3.75-3.98 8.19-3.98 12.75v42.434h40.03v-42.434c0-4.56 1.38-9 3.97-12.75l13.25-19.17c2.59-3.75 3.97-8.19 3.97-12.75v-36.69c0-22.04-14.64-41.41-35.84-47.42z" fill="#ffcec0"/></g></g></g><g><path d="m494.5 73.188h-15.46v-7.013c0-9.649-7.851-17.5-17.5-17.5h-90.344c-4.143 0-7.5 3.357-7.5 7.5s3.357 7.5 7.5 7.5h90.344c1.379 0 2.5 1.121 2.5 2.5v250.669h-13.747c-5.241-18.701-19.907-33.979-39.202-39.449l-25.665-7.275v-10.55h39.354c4.143 0 7.5-3.357 7.5-7.5s-3.357-7.5-7.5-7.5h-39.354v-15.295h39.354c4.143 0 7.5-3.357 7.5-7.5s-3.357-7.5-7.5-7.5h-39.354v-9.075c0-2.131-.247-4.211-.699-6.22h40.053c4.143 0 7.5-3.357 7.5-7.5s-3.357-7.5-7.5-7.5h-48.816c-4.712-4.277-10.821-6.984-17.494-7.222-7.346-.274-14.351 2.3-19.778 7.222h-36.19c-4.143 0-7.5 3.357-7.5 7.5s3.357 7.5 7.5 7.5h27.571c-.384 1.862-.583 3.778-.583 5.729v9.566h-26.987c-4.143 0-7.5 3.357-7.5 7.5s3.357 7.5 7.5 7.5h26.987v15.295h-26.987c-4.143 0-7.5 3.357-7.5 7.5s3.357 7.5 7.5 7.5h26.987v7.743h-1.439c-17.592 0-31.903 14.312-31.903 31.903v17.627h-.148c-12.564 0-23.996 4.912-32.5 12.906v-233.574c0-17.921 14.579-32.5 32.5-32.5h42.034c4.143 0 7.5-3.357 7.5-7.5s-3.357-7.5-7.5-7.5h-42.034c-16.782 0-31.548 8.756-40 21.932-8.452-13.176-23.218-21.932-40-21.932h-165.541c-9.649 0-17.5 7.851-17.5 17.5v7.013h-15.459c-9.649 0-17.5 7.851-17.5 17.5v315.998c0 9.649 7.851 17.5 17.5 17.5h285.002c4.143 0 7.5-3.357 7.5-7.5s-3.357-7.5-7.5-7.5h-285.002c-1.378 0-2.5-1.121-2.5-2.5v-315.998c0-1.379 1.122-2.5 2.5-2.5h15.459v166.721c0 4.143 3.358 7.5 7.5 7.5s7.5-3.357 7.5-7.5v-188.734c0-1.379 1.122-2.5 2.5-2.5h165.541c17.92 0 32.5 14.579 32.5 32.5v233.575c-8.504-7.994-19.936-12.906-32.5-12.906h-168.041v-28.774c0-4.143-3.358-7.5-7.5-7.5s-7.5 3.357-7.5 7.5v81.162c0 9.649 7.851 17.5 17.5 17.5h195.541c3.718 0 7.162-1.174 10-3.159 2.838 1.985 6.282 3.159 10 3.159h45.226l9.883 8.906c4.726 4.259 7.437 10.352 7.437 16.714v43.473c0 4.143 3.357 7.5 7.5 7.5s7.5-3.357 7.5-7.5v-43.473c0-10.604-4.518-20.758-12.395-27.856l-12.567-11.326c-4.727-4.258-7.438-10.35-7.438-16.713v-57.24c0-9.32 7.583-16.903 16.903-16.903h1.439v36.248c0 3.268-1.272 6.339-3.582 8.648-2.929 2.929-2.93 7.677-.001 10.606 1.464 1.465 3.384 2.197 5.304 2.197 1.919 0 3.838-.732 5.303-2.196 5.144-5.143 7.977-11.98 7.977-19.256v-43.748-70.104c0-3.551 1.408-6.866 3.965-9.333 2.555-2.466 5.919-3.758 9.483-3.627 6.886.245 12.488 6.279 12.488 13.451v70.589c0 3.354 2.228 6.301 5.455 7.216l31.12 8.821c17.895 5.073 30.393 21.606 30.393 40.206v36.693c0 3.044-.915 5.978-2.646 8.483l-13.245 19.17c-3.47 5.022-5.304 10.904-5.304 17.01v42.437c0 4.143 3.357 7.5 7.5 7.5s7.5-3.357 7.5-7.5v-31.64h63.302c9.649 0 17.5-7.851 17.5-17.5v-315.997c0-9.65-7.851-17.5-17.5-17.5zm-248.5 298.544h-195.541c-1.378 0-2.5-1.121-2.5-2.5v-9.941h176.331c4.142 0 7.5-3.357 7.5-7.5s-3.358-7.5-7.5-7.5h-176.331v-12.447h168.041c17.92 0 32.5 14.579 32.5 32.5v4.889c0 1.378-1.122 2.499-2.5 2.499zm17.5-2.5v-4.889c0-17.921 14.579-32.5 32.5-32.5h.146v12.447h-8.437c-4.143 0-7.5 3.357-7.5 7.5s3.357 7.5 7.5 7.5h8.557c.329 4.323 1.394 8.532 3.138 12.441h-33.404c-1.379.001-2.5-1.12-2.5-2.499zm188.893-.506v-9.435h11.647v9.941c0 1.379-1.121 2.5-2.5 2.5h-9.316c.1-.995.169-1.996.169-3.006zm11.647-36.882v12.447h-11.647v-12.259c0-.063-.004-.125-.004-.188zm32.96 74.842c0 1.379-1.121 2.5-2.5 2.5h-62.693c.444-1.514 1.124-2.958 2.037-4.279l12.555-18.174h15.141c9.649 0 17.5-7.851 17.5-17.5v-281.045h15.46c1.379 0 2.5 1.121 2.5 2.5z"/><path d="m203.151 108.097h6.347c4.142 0 7.5-3.357 7.5-7.5s-3.358-7.5-7.5-7.5h-6.347c-4.142 0-7.5 3.357-7.5 7.5s3.358 7.5 7.5 7.5z"/><path d="m203.151 138.392h6.348c4.142 0 7.5-3.357 7.5-7.5s-3.358-7.5-7.5-7.5h-6.348c-4.142 0-7.5 3.357-7.5 7.5s3.358 7.5 7.5 7.5z"/><path d="m203.151 168.687h6.348c4.142 0 7.5-3.357 7.5-7.5s-3.358-7.5-7.5-7.5h-6.348c-4.142 0-7.5 3.357-7.5 7.5s3.358 7.5 7.5 7.5z"/><path d="m203.151 198.98h6.348c4.142 0 7.5-3.357 7.5-7.5s-3.358-7.5-7.5-7.5h-6.348c-4.142 0-7.5 3.357-7.5 7.5s3.358 7.5 7.5 7.5z"/><path d="m79.72 221.775c0 4.143 3.358 7.5 7.5 7.5h122.278c4.142 0 7.5-3.357 7.5-7.5s-3.358-7.5-7.5-7.5h-122.278c-4.142 0-7.5 3.358-7.5 7.5z"/><path d="m209.499 244.57h-122.279c-4.142 0-7.5 3.357-7.5 7.5s3.358 7.5 7.5 7.5h122.278c4.142 0 7.5-3.357 7.5-7.5s-3.357-7.5-7.499-7.5z"/><path d="m209.499 274.864h-122.279c-4.142 0-7.5 3.357-7.5 7.5s3.358 7.5 7.5 7.5h122.278c4.142 0 7.5-3.357 7.5-7.5s-3.357-7.5-7.499-7.5z"/><path d="m424.78 153.687h-122.278c-4.143 0-7.5 3.357-7.5 7.5s3.357 7.5 7.5 7.5h122.278c4.143 0 7.5-3.357 7.5-7.5s-3.357-7.5-7.5-7.5z"/><path d="m424.78 93.097h-122.278c-4.143 0-7.5 3.357-7.5 7.5s3.357 7.5 7.5 7.5h122.278c4.143 0 7.5-3.357 7.5-7.5s-3.357-7.5-7.5-7.5z"/><path d="m424.78 123.392h-122.278c-4.143 0-7.5 3.357-7.5 7.5s3.357 7.5 7.5 7.5h122.278c4.143 0 7.5-3.357 7.5-7.5s-3.357-7.5-7.5-7.5z"/><path d="m165.623 93.097h-68.404c-9.65 0-17.501 7.851-17.501 17.501v70.88c0 9.65 7.851 17.501 17.501 17.501h68.404c9.65 0 17.501-7.851 17.501-17.501v-70.88c0-9.651-7.851-17.501-17.501-17.501zm2.501 88.381c0 1.379-1.122 2.501-2.501 2.501h-68.404c-1.379 0-2.501-1.122-2.501-2.501v-70.88c0-1.379 1.122-2.501 2.501-2.501h68.404c1.379 0 2.501 1.122 2.501 2.501z"/><path d="m137.017 118.256h-13.578c-4.142 0-7.5 3.357-7.5 7.5s3.358 7.5 7.5 7.5h13.578c.06 0 .108.049.108.108v6.197h-11.296c-8.331 0-15.108 6.777-15.108 15.108v6.043c0 8.331 6.778 15.108 15.108 15.108h18.796c4.142 0 7.5-3.357 7.5-7.5v-21.26-13.697c0-8.33-6.777-15.107-15.108-15.107zm.108 42.565h-11.296c-.06 0-.108-.049-.108-.108v-6.043c0-.06.049-.108.108-.108h11.296z"/></g></g></svg>