<svg height="512pt" viewBox="0 0 512 512" width="512pt" xmlns="http://www.w3.org/2000/svg"><path d="m285.9375 285.9375h226.0625v226.0625h-226.0625zm0 0" fill="#5be167"/><path d="m389.839844 244.316406c67.359375 0 122.160156-54.800781 122.160156-122.160156 0-67.355469-54.800781-122.15625-122.160156-122.15625s-122.15625 54.800781-122.15625 122.160156 54.800781 122.15625 122.15625 122.15625zm0 0" fill="#ffda2d"/><path d="m0 231.3125h262.699219l-131.347657-231.3125zm0 0" fill="#ff0059"/><path d="m63.648438 291.511719-63.648438 110.246093 63.648438 110.242188h127.296874l63.648438-110.242188-63.648438-110.246093zm0 0" fill="#00d7df"/><path d="m398 285.9375h114v226.0625h-114zm0 0" fill="#1fc974"/><path d="m389.839844 244.316406c67.359375 0 122.160156-54.800781 122.160156-122.160156 0-67.355469-54.800781-122.15625-122.160156-122.15625zm0 0" fill="#fdbf00"/><path d="m131.203125 231.3125h131.496094l-131.347657-231.3125zm0 0" fill="#d20041"/><path d="m190.945312 291.511719h-63.945312v220.488281h63.945312l63.648438-110.242188zm0 0" fill="#00aadf"/></svg>